<svg xmlns="http://www.w3.org/2000/svg" viewBox="0 0 64 64">
  <!-- achtergrond transparant zodat het werkt op light en dark -->
  <g fill="none" fill-rule="evenodd">
    <!-- toolbox body -->
    <rect x="10" y="22" width="44" height="28" rx="4" fill="#f97316"/>
    <!-- deksel -->
    <rect x="10" y="18" width="44" height="8" rx="3" fill="#fb923c"/>
    <!-- handvat -->
    <rect x="22" y="10" width="20" height="6" rx="3" fill="#f97316"/>
    <!-- tandwiel in het midden -->
    <circle cx="32" cy="36" r="6" fill="#0b1120"/>
    <circle cx="32" cy="36" r="2.4" fill="#f9fafb"/>
    <g fill="#0b1120">
      <rect x="31" y="26.5" width="2" height="4"/>
      <rect x="31" y="41.5" width="2" height="4"/>
      <rect x="22.5" y="35" width="4" height="2"/>
      <rect x="37.5" y="35" width="4" height="2"/>
      <rect x="25.2" y="28.4" width="2" height="4" transform="rotate(-45 26.2 30.4)"/>
      <rect x="25.2" y="39.6" width="2" height="4" transform="rotate(45 26.2 41.6)"/>
      <rect x="36.8" y="28.4" width="2" height="4" transform="rotate(45 37.8 30.4)"/>
      <rect x="36.8" y="39.6" width="2" height="4" transform="rotate(-45 37.8 41.6)"/>
    </g>
  </g>
</svg>

